# This file uses meters as units for non-parametric coordinates.

mtllib CleaningSpray001.mtl
g default
v -49.791845 -0.164273 -86.716910
v -46.943400 -0.164273 -86.716910
v -49.468056 25.647671 -89.600497
v -47.267189 25.647671 -89.600497
v -49.659886 25.647671 -93.239257
v -47.075359 25.647671 -93.239257
v -49.791845 -0.164273 -96.328245
v -46.943400 -0.164273 -96.328245
v -49.791845 21.858157 -89.376380
v -49.791845 22.203885 -94.655788
v -46.943400 22.203885 -94.655788
v -46.943400 21.858157 -89.376380
v -49.500418 16.809397 -88.644307
v -49.500418 16.809397 -96.356757
v -47.234830 16.809397 -96.356757
v -47.234830 16.809397 -88.644307
v -49.830303 13.203874 -86.507673
v -49.830303 13.203874 -97.310761
v -46.904942 13.203874 -97.310761
v -46.904942 13.203874 -86.507673
v -49.791845 1.476529 -85.726999
v -49.791845 1.476529 -97.318156
v -46.943400 1.476529 -97.318156
v -46.943400 1.476529 -85.726999
v -45.221383 -0.156300 -95.002082
v -45.221383 -0.156300 -88.043073
v -44.591300 2.294585 -94.969251
v -44.591300 2.294585 -88.075903
v -45.897738 21.947835 -93.135090
v -45.897738 21.881348 -90.973935
v -46.376669 25.644110 -92.467925
v -46.376669 25.644110 -91.288885
v -45.648380 16.098577 -93.998211
v -45.648380 16.118309 -90.195913
v -44.653559 12.898003 -95.258468
v -44.653559 12.764115 -88.559966
v -51.513865 -0.156304 -95.002082
v -51.513865 -0.156304 -88.043073
v -52.143945 2.294583 -88.075903
v -52.143945 2.294583 -94.969251
v -50.837507 21.881349 -90.973935
v -50.837507 21.947837 -93.135090
v -50.358579 25.644116 -91.288885
v -50.358579 25.644116 -92.467925
v -51.086868 16.118309 -90.195913
v -51.086868 16.098577 -93.998211
v -52.081689 12.764115 -88.559966
v -52.081689 12.898003 -95.258468
v -49.915050 8.228466 -98.051340
v -52.383754 8.484559 -95.423864
v -52.383754 8.417614 -87.621291
v -49.915050 8.228466 -84.993814
v -46.820195 8.228466 -84.993814
v -44.351491 8.417614 -87.621291
v -44.351491 8.484559 -95.423864
v -46.820195 8.228466 -98.051340
v -49.215105 26.206663 -90.274495
v -47.520140 26.206666 -90.274495
v -47.497019 26.205755 -92.721569
v -49.238226 26.205749 -92.721569
v -46.805966 26.204157 -91.463122
v -46.805966 26.204157 -92.220124
v -49.929282 26.204157 -92.220124
v -49.929282 26.204157 -91.463122
v -49.148318 28.604912 -85.017918
v -47.599597 28.604912 -85.017918
v -49.148318 30.718428 -85.017918
v -47.599597 30.718428 -85.017918
v -49.258240 30.359993 -98.758504
v -47.489675 30.359993 -98.758504
v -49.258240 29.165977 -98.758504
v -47.489675 29.165977 -98.758504
v -49.708522 31.727544 -91.593125
v -49.708522 27.445167 -91.593125
v -47.039393 27.445167 -91.593125
v -47.039393 31.727544 -91.593125
v -49.708522 31.727544 -94.354463
v -49.708522 29.441290 -94.354463
v -47.039393 29.441290 -94.354463
v -47.039393 31.727544 -94.354463
v -49.483381 31.168823 -96.556484
v -49.483381 29.464061 -96.556484
v -47.264534 29.464061 -96.556484
v -47.264534 31.168823 -96.556484
v -49.521788 31.502997 -89.113806
v -49.521788 27.719924 -89.113806
v -47.226126 27.719924 -89.113806
v -47.226126 31.502997 -89.113806
v -47.513476 26.049579 -92.287111
v -48.359702 26.049579 -92.637629
v -49.205927 26.049579 -92.287111
v -49.556447 26.049579 -91.440883
v -49.205927 26.049579 -90.594655
v -48.359702 26.049579 -90.244137
v -47.513476 26.049579 -90.594655
v -47.162956 26.049579 -91.440883
v -47.513476 29.046275 -92.287111
v -48.359702 29.046275 -92.637629
v -49.205927 29.046275 -92.287111
v -49.556447 29.046275 -91.440883
v -49.205927 29.046275 -90.594655
v -48.359702 29.046275 -90.244137
v -47.513476 29.046275 -90.594655
v -47.162956 29.046275 -91.440883
v -48.940560 21.295463 -84.737333
v -47.784960 21.295463 -84.737333
v -48.940560 21.562478 -84.182956
v -47.784960 21.562478 -84.182956
v -49.142571 28.433572 -87.675029
v -47.582949 28.433572 -87.675029
v -49.142571 27.924641 -88.731676
v -47.582949 27.924641 -88.731676
v -48.994976 26.018818 -86.786526
v -48.994976 25.590525 -87.675746
v -47.730544 25.590525 -87.675746
v -47.730544 26.018818 -86.786526
v -48.940560 23.740609 -85.594529
v -48.940560 23.392954 -86.316328
v -47.784960 23.392954 -86.316328
v -47.784960 23.740609 -85.594529
vt 0.375634 0.569347
vt 0.375478 0.605114
vt 0.324763 0.605736
vt 0.325011 0.568651
vt 0.393208 0.562255
vt 0.393337 0.612092
vt 0.350842 0.620122
vt 0.335137 0.620004
vt 0.310078 0.616973
vt 0.309929 0.557497
vt 0.335192 0.554403
vt 0.350922 0.554290
vt 0.355288 0.635098
vt 0.355296 0.539326
vt 0.327781 0.633093
vt 0.327756 0.541362
vt 0.297882 0.294032
vt 0.743201 0.302154
vt 0.363539 0.515576
vt 0.820153 0.304828
vt 0.808859 0.324971
vt 0.743201 0.324972
vt 0.403233 0.324600
vt 0.403233 0.485008
vt 0.885811 0.327647
vt 0.820153 0.327646
vt 0.258188 0.485008
vt 0.258188 0.324600
vt 0.645063 0.302431
vt 0.495843 0.302436
vt 0.498254 0.357426
vt 0.642487 0.357324
vt 0.451791 0.296014
vt 0.430149 0.333570
vt 0.488938 0.494774
vt 0.650801 0.492714
vt 0.710799 0.333660
vt 0.689152 0.296026
vt 0.410857 0.489609
vt 0.492735 0.591690
vt 0.630877 0.588022
vt 0.729102 0.490139
vt 0.429237 0.606684
vt 0.514873 0.668353
vt 0.599210 0.668872
vt 0.693908 0.607853
vt 0.452814 0.689452
vt 0.534565 0.804048
vt 0.581856 0.802417
vt 0.645987 0.690780
vt 0.494622 0.812607
vt 0.549842 0.888455
vt 0.575457 0.888266
vt 0.623422 0.804472
vt 0.527371 0.891612
vt 0.616912 0.890869
vt 0.495906 0.302425
vt 0.645156 0.302369
vt 0.642573 0.357313
vt 0.498330 0.357384
vt 0.689199 0.296024
vt 0.710847 0.333652
vt 0.650871 0.492719
vt 0.489034 0.494773
vt 0.430260 0.333554
vt 0.451909 0.296019
vt 0.729164 0.490143
vt 0.630934 0.588031
vt 0.492832 0.591700
vt 0.410963 0.489613
vt 0.693963 0.607860
vt 0.599272 0.668881
vt 0.514960 0.668357
vt 0.429341 0.606692
vt 0.646028 0.690783
vt 0.581941 0.802424
vt 0.534638 0.804058
vt 0.452923 0.689454
vt 0.623481 0.804470
vt 0.575540 0.888281
vt 0.549922 0.888471
vt 0.494722 0.812616
vt 0.616981 0.890879
vt 0.527466 0.891625
vt 0.805817 0.882124
vt 0.746243 0.882124
vt 0.743201 0.802744
vt 0.808859 0.802744
vt 0.749918 0.678399
vt 0.802141 0.678398
vt 0.742314 0.595290
vt 0.809745 0.595290
vt 0.740361 0.480606
vt 0.811698 0.480606
vt 0.885811 0.304829
vt 0.297882 0.515576
vt 0.820153 0.797450
vt 0.885811 0.797450
vt 0.878347 0.884799
vt 0.827616 0.884799
vt 0.826870 0.681074
vt 0.879093 0.681074
vt 0.819266 0.597966
vt 0.886697 0.597966
vt 0.817313 0.483281
vt 0.888651 0.483281
vt 0.363539 0.294032
vt 0.808858 0.302153
vt 0.129228 0.309405
vt 0.159582 0.309405
vt 0.159582 0.350828
vt 0.129228 0.350828
vt 0.166901 0.431104
vt 0.121908 0.431104
vt 0.127073 0.620133
vt 0.161736 0.620133
vt 0.161736 0.643534
vt 0.127073 0.643534
vt 0.240367 0.502201
vt 0.233048 0.582477
vt 0.202694 0.582477
vt 0.195374 0.502201
vt 0.231691 0.612920
vt 0.190268 0.612920
vt 0.172923 0.693197
vt 0.247068 0.693197
vt 0.172895 0.693010
vt 0.190240 0.612734
vt 0.231664 0.612734
vt 0.247041 0.693010
vt 0.206633 0.795723
vt 0.167510 0.741603
vt 0.251441 0.741603
vt 0.251441 0.795723
vt 0.191715 0.399488
vt 0.244027 0.399488
vt 0.244027 0.453608
vt 0.191715 0.453608
vt 0.251469 0.741789
vt 0.167538 0.741789
vt 0.206660 0.795909
vt 0.251469 0.795909
vt 0.118248 0.479697
vt 0.170561 0.479697
vt 0.170561 0.533817
vt 0.118248 0.533817
vt 0.207079 0.838881
vt 0.240491 0.838881
vt 0.196127 0.356330
vt 0.239615 0.356330
vt 0.207106 0.839068
vt 0.240518 0.839068
vt 0.166149 0.576975
vt 0.122661 0.576975
vt 0.201237 0.882039
vt 0.224638 0.882039
vt 0.200540 0.313172
vt 0.235202 0.313172
vt 0.201265 0.882225
vt 0.224666 0.882225
vt 0.253383 0.226575
vt 0.232818 0.226575
vt 0.232818 0.153750
vt 0.253383 0.153750
vt 0.212254 0.226575
vt 0.212254 0.153750
vt 0.191689 0.226575
vt 0.191689 0.153750
vt 0.171124 0.226575
vt 0.171124 0.153750
vt 0.150559 0.226574
vt 0.150560 0.153750
vt 0.129995 0.226575
vt 0.129995 0.153750
vt 0.294512 0.226574
vt 0.273948 0.226574
vt 0.273948 0.153750
vt 0.294512 0.153750
vt 0.314741 0.682704
vt 0.338651 0.682704
vt 0.338651 0.695435
vt 0.314741 0.695435
vt 0.338651 0.748643
vt 0.314741 0.748643
vt 0.348332 0.801548
vt 0.372241 0.801548
vt 0.372241 0.854720
vt 0.348332 0.854720
vt 0.296459 0.695584
vt 0.285348 0.748756
vt 0.301924 0.748914
vt 0.309190 0.695705
vt 0.285373 0.748607
vt 0.296483 0.695435
vt 0.309214 0.695556
vt 0.301948 0.748765
vt 0.280021 0.854720
vt 0.279254 0.801720
vt 0.299675 0.801916
vt 0.304286 0.854952
vt 0.344152 0.695435
vt 0.376421 0.695435
vt 0.373367 0.748434
vt 0.347206 0.748434
vt 0.299650 0.802064
vt 0.279230 0.801869
vt 0.279996 0.854869
vt 0.304261 0.855101
vt 0.313615 0.801794
vt 0.339777 0.801794
vt 0.342831 0.854831
vt 0.310562 0.854831
vn 0.000000 -0.516578 0.856240
vn 0.000000 -0.516578 0.856240
vn 0.000000 -0.197236 0.980356
vn 0.000000 -0.197236 0.980356
vn -0.141275 0.958479 0.247709
vn 0.141274 0.958479 0.247709
vn 0.048778 0.959871 -0.276167
vn -0.048780 0.959871 -0.276168
vn 0.000000 -0.197236 -0.980356
vn 0.000000 -0.197236 -0.980356
vn 0.000000 -0.516578 -0.856240
vn 0.000000 -0.516578 -0.856240
vn 0.000000 -1.000000 0.000000
vn 0.000000 -1.000000 0.000000
vn 0.000000 -1.000000 0.000000
vn 0.000000 -1.000000 0.000000
vn 0.968507 -0.248988 0.000000
vn 0.968507 -0.248988 0.000000
vn 0.995341 -0.096417 -0.000130
vn 0.995343 -0.096396 -0.000130
vn -0.968507 -0.248987 0.000000
vn -0.968507 -0.248987 0.000000
vn -0.995343 -0.096396 -0.000130
vn -0.995341 -0.096416 -0.000130
vn -0.998031 0.062724 0.000852
vn -0.998036 0.062639 0.000850
vn -0.991867 0.127251 0.002533
vn -0.991867 0.127251 0.002533
vn 0.000000 0.380406 -0.924820
vn 0.000000 0.380406 -0.924820
vn 0.000000 0.334010 -0.942570
vn 0.000000 0.334010 -0.942570
vn 0.998036 0.062638 0.000850
vn 0.998031 0.062724 0.000852
vn 0.991867 0.127252 0.002533
vn 0.991867 0.127252 0.002533
vn 0.000000 0.108208 0.994128
vn 0.000000 0.108208 0.994128
vn 0.000000 0.059038 0.998256
vn 0.000000 0.059038 0.998256
vn -0.981883 0.189476 0.002006
vn -0.981667 0.190594 0.002018
vn 0.000000 0.282540 -0.959256
vn 0.000000 0.282540 -0.959256
vn 0.981667 0.190593 0.002018
vn 0.981884 0.189474 0.002006
vn 0.000000 0.317254 0.948341
vn 0.000000 0.317254 0.948341
vn -0.990549 0.137149 0.001634
vn -0.991912 0.126915 0.001532
vn 0.000000 0.188082 -0.982153
vn 0.000000 0.188082 -0.982153
vn 0.991912 0.126915 0.001533
vn 0.990549 0.137150 0.001634
vn 0.000000 0.380125 0.924935
vn 0.000000 0.380125 0.924935
vn -0.999979 0.006480 0.000299
vn -0.999996 0.002743 0.000260
vn 0.000000 0.001492 -0.999999
vn 0.000000 0.001492 -0.999999
vn 0.999996 0.002744 0.000260
vn 0.999979 0.006481 0.000299
vn 0.000000 0.067830 0.997697
vn 0.000000 0.067830 0.997697
vn 0.004630 -0.999989 0.000000
vn 0.004630 -0.999989 0.000000
vn 0.004630 -0.999989 0.000000
vn 0.004630 -0.999989 0.000000
vn 0.674929 -0.265014 -0.688649
vn 0.716397 -0.121420 -0.687047
vn 0.719148 -0.109252 -0.686215
vn 0.674929 -0.265014 -0.688649
vn 0.715921 -0.121955 0.687448
vn 0.674928 -0.265016 0.688651
vn 0.674928 -0.265016 0.688651
vn 0.718650 -0.109778 0.686652
vn 0.824576 0.147361 -0.546223
vn 0.786236 0.234151 -0.571845
vn 0.786236 0.234151 -0.571845
vn 0.823429 0.150269 -0.547160
vn 0.415810 0.899678 0.132969
vn 0.366963 0.917320 -0.154471
vn 0.854275 0.126784 0.504124
vn 0.805064 0.100368 0.584635
vn 0.808673 0.102203 0.579313
vn 0.854275 0.126784 0.504124
vn 0.802879 0.212935 -0.556817
vn 0.799179 0.222231 -0.558503
vn 0.742300 0.258407 0.618237
vn 0.734245 0.288872 0.614360
vn 0.726988 0.194844 -0.658426
vn 0.725519 0.188237 -0.661958
vn 0.693874 0.299902 0.654673
vn 0.693683 0.304769 0.652625
vn 0.718580 -0.014425 -0.695294
vn 0.717691 -0.006816 -0.696328
vn 0.720224 0.026612 0.693231
vn 0.718567 0.046615 0.693894
vn -0.004628 -0.999989 0.000000
vn -0.004628 -0.999989 0.000000
vn -0.004628 -0.999989 0.000000
vn -0.004628 -0.999989 0.000000
vn -0.674929 -0.265014 0.688650
vn -0.715921 -0.121954 0.687448
vn -0.718651 -0.109777 0.686651
vn -0.674929 -0.265014 0.688650
vn -0.716396 -0.121420 -0.687047
vn -0.674928 -0.265015 -0.688650
vn -0.674928 -0.265015 -0.688650
vn -0.719147 -0.109252 -0.686215
vn -0.805064 0.100368 0.584636
vn -0.854274 0.126784 0.504125
vn -0.854274 0.126784 0.504125
vn -0.808672 0.102203 0.579313
vn -0.366957 0.917323 -0.154471
vn -0.415805 0.899680 0.132970
vn -0.786234 0.234151 -0.571848
vn -0.824576 0.147360 -0.546223
vn -0.823429 0.150269 -0.547160
vn -0.786234 0.234151 -0.571848
vn -0.742300 0.258407 0.618237
vn -0.734245 0.288872 0.614359
vn -0.802879 0.212935 -0.556816
vn -0.799179 0.222231 -0.558503
vn -0.693874 0.299902 0.654674
vn -0.693683 0.304768 0.652626
vn -0.726987 0.194844 -0.658426
vn -0.725519 0.188236 -0.661959
vn -0.720224 0.026613 0.693231
vn -0.718567 0.046615 0.693894
vn -0.718580 -0.014425 -0.695295
vn -0.717691 -0.006816 -0.696329
vn -0.252605 0.780564 0.571761
vn 0.252607 0.780564 0.571760
vn 0.188685 0.716645 -0.671429
vn -0.188683 0.716646 -0.671429
vn 0.708712 0.660804 0.247114
vn 0.645607 0.700911 -0.303176
vn -0.645603 0.700914 -0.303178
vn -0.708710 0.660805 0.247115
vn 0.000000 0.000000 1.000000
vn 0.000000 0.000000 1.000000
vn 0.000000 0.000000 1.000000
vn 0.000000 0.000000 1.000000
vn 0.000000 0.982144 0.188131
vn 0.000000 0.982144 0.188131
vn 0.000000 0.989704 0.143127
vn 0.000000 0.989704 0.143127
vn 0.000000 0.000000 -1.000000
vn 0.000000 0.000000 -1.000000
vn 0.000000 0.000000 -1.000000
vn 0.000000 0.000000 -1.000000
vn 0.000000 -0.986315 0.164874
vn 0.000000 -0.977444 0.211195
vn 0.000000 -0.977444 0.211195
vn 0.000000 -0.986315 0.164874
vn 0.995869 0.000000 0.090805
vn 0.995869 0.000000 0.090805
vn 0.996561 0.000000 0.082869
vn 0.996551 0.000000 0.082983
vn -0.996561 0.000000 0.082869
vn -0.995869 0.000000 0.090805
vn -0.995869 0.000000 0.090805
vn -0.996551 0.000000 0.082983
vn -0.999658 0.000000 -0.026171
vn -0.998875 0.000000 0.047413
vn -0.999264 0.000000 0.038355
vn -0.999561 0.000000 -0.029627
vn 0.000000 -0.917412 -0.397938
vn 0.000000 -0.917412 -0.397938
vn 0.000000 -0.942809 -0.333332
vn 0.000000 -0.942809 -0.333332
vn 0.999264 0.000000 0.038355
vn 0.998875 0.000000 0.047413
vn 0.999657 0.000000 -0.026171
vn 0.999561 0.000000 -0.029627
vn 0.000000 0.999196 0.040087
vn 0.000000 0.999196 0.040087
vn 0.000000 0.994729 -0.102540
vn 0.000000 0.994729 -0.102540
vn -0.994814 0.000000 -0.101713
vn -0.994814 0.000000 -0.101713
vn 0.000000 -0.998728 0.050432
vn 0.000000 -0.998728 0.050432
vn 0.994814 0.000000 -0.101713
vn 0.994814 0.000000 -0.101713
vn 0.000000 0.957482 -0.288494
vn 0.000000 0.957482 -0.288494
vn -0.994814 0.000000 -0.101713
vn -0.994814 0.000000 -0.101713
vn 0.000000 -0.990962 0.134145
vn 0.000000 -0.990962 0.134145
vn 0.994814 0.000000 -0.101713
vn 0.994814 0.000000 -0.101713
vn 0.000000 0.938680 -0.344790
vn 0.000000 0.938680 -0.344790
vn 0.382680 0.000000 -0.923881
vn 0.382680 0.000000 -0.923881
vn 0.382680 0.000000 -0.923881
vn 0.382680 0.000000 -0.923881
vn -0.382680 0.000000 -0.923881
vn -0.382680 0.000000 -0.923881
vn -0.382680 0.000000 -0.923881
vn -0.382680 0.000000 -0.923881
vn -0.923879 0.000000 -0.382684
vn -0.923879 0.000000 -0.382684
vn -0.923879 0.000000 -0.382684
vn -0.923879 0.000000 -0.382684
vn -0.923879 0.000000 0.382684
vn -0.923879 0.000000 0.382684
vn -0.923879 0.000000 0.382684
vn -0.923879 0.000000 0.382684
vn -0.382680 0.000000 0.923881
vn -0.382680 0.000000 0.923881
vn -0.382680 0.000000 0.923881
vn -0.382680 0.000000 0.923881
vn 0.382680 0.000000 0.923881
vn 0.382680 0.000000 0.923881
vn 0.382680 0.000000 0.923881
vn 0.382680 0.000000 0.923881
vn 0.923879 0.000000 0.382684
vn 0.923879 0.000000 0.382684
vn 0.923879 0.000000 0.382684
vn 0.923879 0.000000 0.382684
vn 0.923879 0.000000 -0.382684
vn 0.923879 0.000000 -0.382684
vn 0.923879 0.000000 -0.382684
vn 0.923879 0.000000 -0.382684
vn 0.000000 -0.900942 0.433940
vn 0.000000 -0.900942 0.433940
vn 0.000000 -0.900942 0.433940
vn 0.000000 -0.900942 0.433940
vn 0.000000 0.543846 0.839185
vn 0.000000 0.543846 0.839185
vn 0.000000 0.503261 0.864135
vn 0.000000 0.503261 0.864135
vn 0.000000 -0.563523 -0.826100
vn 0.000000 -0.563523 -0.826100
vn 0.000000 -0.601431 -0.798925
vn 0.000000 -0.601431 -0.798925
vn 1.000000 0.000000 0.000000
vn 0.999918 -0.011555 0.005565
vn 0.999936 -0.010169 0.004898
vn 1.000000 0.000000 0.000000
vn -0.999918 -0.011554 0.005565
vn -1.000000 -0.000001 0.000000
vn -1.000000 -0.000001 0.000000
vn -0.999936 -0.010169 0.004898
vn -0.998344 -0.051835 0.024966
vn -0.999137 -0.037422 0.018025
vn -0.999143 -0.037298 0.017965
vn -0.998344 -0.051835 0.024966
vn 0.000000 -0.412175 -0.911105
vn 0.000000 -0.412175 -0.911105
vn 0.000000 -0.464544 -0.885550
vn 0.000000 -0.464544 -0.885550
vn 0.999143 -0.037298 0.017965
vn 0.999137 -0.037422 0.018025
vn 0.998344 -0.051833 0.024966
vn 0.998344 -0.051833 0.024966
vn 0.000000 0.399255 0.916840
vn 0.000000 0.399255 0.916840
vn 0.000000 0.345314 0.938487
vn 0.000000 0.345314 0.938487
s 1
g polySurface3
usemtl lambert3SG
f 1/20/1 2/95/2 24/25/3 21/26/4
s 2
f 57/1/5 58/2/6 59/3/7 60/4/8
s 3
f 22/21/9 23/22/10 8/18/11 7/108/12
s off
f 7/17/13 8/107/14 2/19/15 1/96/16
s 4
f 26/29/17 25/30/18 27/31/19 28/32/20
s 5
f 37/57/21 38/58/22 39/59/23 40/60/24
f 42/77/25 41/76/26 43/80/27 44/81/28
s 3
f 5/85/29 6/86/30 11/87/31 10/88/32
s 4
f 30/49/33 29/48/34 31/52/35 32/53/36
s 1
f 9/97/37 12/98/38 4/99/39 3/100/40
s 5
f 46/73/41 45/72/42 41/76/26 42/77/25
s 3
f 10/88/32 11/87/31 15/89/43 14/90/44
s 4
f 34/45/45 33/44/46 29/48/34 30/49/33
s 1
f 13/101/47 16/102/48 12/98/38 9/97/37
s 5
f 48/69/49 47/68/50 45/72/42 46/73/41
s 3
f 14/90/44 15/89/43 19/91/51 18/92/52
s 4
f 36/41/53 35/40/54 33/44/46 34/45/45
s 1
f 17/103/55 20/104/56 16/102/48 13/101/47
s 5
f 50/64/57 51/63/58 47/68/50 48/69/49
s 3
f 18/92/52 19/91/51 56/93/59 49/94/60
s 4
f 54/36/61 55/35/62 35/40/54 36/41/53
s 1
f 52/105/63 53/106/64 20/104/56 17/103/55
s off
f 2/19/65 8/107/66 25/23/67 26/24/68
s 10
f 8/33/69 23/34/70 27/31/71 25/30/72
s 11
f 24/37/73 2/38/74 26/29/75 28/32/76
s 10
f 11/51/77 6/55/78 31/52/79 29/48/80
s 2
f 59/3/7 58/2/6 61/7/81 62/8/82
s 11
f 4/56/83 12/54/84 30/49/85 32/53/86
s 10
f 15/47/87 11/51/77 29/48/80 33/44/88
s 11
f 12/54/84 16/50/89 34/45/90 30/49/85
s 10
f 19/43/91 15/47/87 33/44/88 35/40/92
s 11
f 16/50/89 20/46/93 36/41/94 34/45/90
s 10
f 56/39/95 19/43/91 35/40/92 55/35/96
s 11
f 20/46/93 53/42/97 54/36/98 36/41/94
s off
f 7/17/99 1/96/100 38/27/101 37/28/102
s 15
f 1/61/103 21/62/104 39/59/105 38/58/106
s 16
f 22/65/107 7/66/108 37/57/109 40/60/110
s 15
f 9/79/111 3/83/112 43/80/113 41/76/114
s 2
f 57/1/5 60/4/8 63/11/115 64/12/116
s 16
f 5/84/117 10/82/118 42/77/119 44/81/120
s 15
f 13/75/121 9/79/111 41/76/114 45/72/122
s 16
f 10/82/118 14/78/123 46/73/124 42/77/119
s 15
f 17/71/125 13/75/121 45/72/122 47/68/126
s 16
f 14/78/123 18/74/127 48/69/128 46/73/124
s 15
f 52/67/129 17/71/125 47/68/126 51/63/130
s 16
f 18/74/127 49/70/131 50/64/132 48/69/128
f 49/70/131 22/65/107 40/60/110 50/64/132
s 5
f 40/60/24 39/59/23 51/63/58 50/64/57
s 15
f 21/62/104 52/67/129 51/63/130 39/59/105
s 1
f 21/26/4 24/25/3 53/106/64 52/105/63
s 11
f 54/36/98 53/42/97 24/37/73 28/32/76
s 4
f 28/32/20 27/31/19 55/35/62 54/36/61
s 10
f 23/34/70 56/39/95 55/35/96 27/31/71
s 3
f 49/94/60 56/93/59 23/22/10 22/21/9
s 2
f 3/5/133 4/6/134 58/2/6 57/1/5
f 6/9/135 5/10/136 60/4/8 59/3/7
f 4/6/134 32/13/137 61/7/81 58/2/6
f 32/13/137 31/15/138 62/8/82 61/7/81
f 31/15/138 6/9/135 59/3/7 62/8/82
f 5/10/136 44/16/139 63/11/115 60/4/8
f 44/16/139 43/14/140 64/12/116 63/11/115
f 43/14/140 3/5/133 57/1/5 64/12/116
s off
f 65/109/141 66/110/142 68/111/143 67/112/144
s 20
f 67/112/145 68/111/146 88/113/147 85/114/148
s off
f 69/115/149 70/116/150 72/117/151 71/118/152
s 21
f 87/119/153 66/120/154 65/121/155 86/122/156
s 22
f 68/123/157 66/124/158 87/125/159 88/126/160
s 23
f 86/127/161 65/128/162 67/129/163 85/130/164
f 78/131/165 74/132/166 73/133/167 77/134/168
s 21
f 78/135/169 79/136/170 75/137/171 74/138/172
s 22
f 76/139/173 75/140/174 79/141/175 80/142/176
s 20
f 73/143/177 76/144/178 80/145/179 77/146/180
s 23
f 82/147/181 78/131/165 77/134/168 81/148/182
s 21
f 82/149/183 83/150/184 79/136/170 78/135/169
s 22
f 80/142/176 79/141/175 83/151/185 84/152/186
s 20
f 77/146/180 80/145/179 84/153/187 81/154/188
s 23
f 71/155/189 82/147/181 81/148/182 69/156/190
s 21
f 71/157/191 72/158/192 83/150/184 82/149/183
s 22
f 84/152/186 83/151/185 72/159/193 70/160/194
s 20
f 81/154/188 84/153/187 70/116/195 69/115/196
s 23
f 74/132/166 86/127/161 85/130/164 73/133/167
s 21
f 74/138/172 75/137/171 87/119/153 86/122/156
s 22
f 88/126/160 87/125/159 75/140/174 76/139/173
s 20
f 85/114/148 88/113/147 76/144/178 73/143/177
s off
f 89/161/197 90/162/198 98/163/199 97/164/200
f 90/162/201 91/165/202 99/166/203 98/163/204
f 91/165/205 92/167/206 100/168/207 99/166/208
f 92/167/209 93/169/210 101/170/211 100/168/212
f 93/169/213 94/171/214 102/172/215 101/170/216
f 94/171/217 95/173/218 103/174/219 102/172/220
f 95/175/221 96/176/222 104/177/223 103/178/224
f 96/176/225 89/161/226 97/164/227 104/177/228
f 105/179/229 106/180/230 108/181/231 107/182/232
s 25
f 107/182/233 108/181/234 120/183/235 117/184/236
s 26
f 118/185/237 119/186/238 106/187/239 105/188/240
s 27
f 106/189/241 119/190/242 120/191/243 108/192/244
s 28
f 118/193/245 105/194/246 107/195/247 117/196/248
f 111/197/249 114/198/250 113/199/251 109/200/252
s 26
f 111/201/253 112/202/254 115/203/255 114/204/256
s 27
f 116/205/257 115/206/258 112/207/259 110/208/260
s 25
f 113/209/261 116/210/262 110/211/263 109/212/264
s 28
f 114/198/250 118/193/245 117/196/248 113/199/251
s 26
f 114/204/256 115/203/255 119/186/238 118/185/237
s 27
f 120/191/243 119/190/242 115/206/258 116/205/257
s 25
f 117/184/236 120/183/235 116/210/262 113/209/261
