# This file uses meters as units for non-parametric coordinates.

mtllib Flap_001.mtl
g default
v -19.000000 121.893490 2.834892
v 19.000000 121.893490 2.834892
v -19.000000 159.893490 2.834892
v 19.000000 159.893490 2.834892
v -19.000000 159.893490 -2.834892
v 19.000000 159.893490 -2.834892
v -19.000000 121.893490 -2.834892
v 19.000000 121.893490 -2.834892
vt 0.040380 0.807916
vt 0.179447 0.807916
vt 0.179447 0.946983
vt 0.040380 0.946983
vt 0.179728 0.967614
vt 0.040662 0.967614
vt 0.040661 0.946864
vt 0.179729 0.946864
vt 0.200478 0.807797
vt 0.019912 0.807797
vt 0.040661 0.807797
vt 0.179728 0.807797
vt 0.019912 0.946864
vt 0.200478 0.946864
vt 0.040661 0.787048
vt 0.179728 0.787048
vn 0.000000 0.000000 1.000000
vn 0.000000 0.000000 1.000000
vn 0.000000 0.000000 1.000000
vn 0.000000 0.000000 1.000000
vn 0.000000 1.000000 0.000000
vn 0.000000 1.000000 0.000000
vn 0.000000 1.000000 0.000000
vn 0.000000 1.000000 0.000000
vn 0.000000 0.000000 -1.000000
vn 0.000000 0.000000 -1.000000
vn 0.000000 0.000000 -1.000000
vn 0.000000 0.000000 -1.000000
vn 0.000000 -1.000000 0.000000
vn 0.000000 -1.000000 0.000000
vn 0.000000 -1.000000 0.000000
vn 0.000000 -1.000000 0.000000
vn 1.000000 0.000000 0.000000
vn 1.000000 0.000000 0.000000
vn 1.000000 0.000000 0.000000
vn 1.000000 0.000000 0.000000
vn -1.000000 0.000000 0.000000
vn -1.000000 0.000000 0.000000
vn -1.000000 0.000000 0.000000
vn -1.000000 0.000000 0.000000
s off
g Flap
usemtl initialShadingGroup
f 1/1/1 2/2/2 4/3/3 3/4/4
f 3/5/5 4/6/6 6/7/7 5/8/8
f 5/8/9 6/7/10 8/11/11 7/12/12
f 7/12/13 8/11/14 2/15/15 1/16/16
f 2/10/17 8/11/18 6/7/19 4/13/20
f 7/12/21 1/9/22 3/14/23 5/8/24
