# This file uses meters as units for non-parametric coordinates.

mtllib KeepCalmPoster.mtl
g default
v -265.091743 -28.982028 -144.123520
v -226.096146 -28.982028 -144.123520
v -265.091743 31.592283 -144.123520
v -226.096146 31.592283 -144.123520
vt 0.462837 0.360357
vt 0.576268 0.360357
vt 0.576268 0.536557
vt 0.462837 0.536557
vn 0.000000 0.000000 1.000000
vn 0.000000 0.000000 1.000000
vn 0.000000 0.000000 1.000000
vn 0.000000 0.000000 1.000000
s off
g pCube6
usemtl lambert2SG
f 1/1/1 2/2/2 4/3/3 3/4/4
