# This file uses meters as units for non-parametric coordinates.

mtllib PaperShelf.mtl
g default
v -215.042587 -7.335547 -113.287025
v -17.041924 -7.335547 -113.287025
v -215.042587 36.210525 -139.724609
v -17.041924 36.210525 -139.724609
v -215.042587 32.890336 -144.064117
v -17.041924 32.890336 -144.064117
v -215.042587 0.498026 -112.400742
v -17.041924 0.498026 -112.400742
v -215.042587 -0.087225 -103.813416
v -17.041924 -0.087225 -103.813416
v -17.041924 4.426159 -107.266640
v -215.042587 4.426159 -107.266640
v -207.695847 -1.860214 -116.510780
v -199.199112 -1.860214 -116.510780
v -207.695847 33.224754 -143.355927
v -199.199112 33.224754 -143.355927
v -207.695847 -20.634798 -143.355927
v -199.199112 -20.634798 -143.355927
v -36.835617 -1.860214 -116.510780
v -28.338882 -1.860214 -116.510780
v -36.835617 33.224754 -143.355927
v -28.338882 33.224754 -143.355927
v -36.835617 -20.634798 -143.355927
v -28.338882 -20.634798 -143.355927
vt 0.785570 0.617370
vt 0.785570 0.021526
vt 0.802671 0.021526
vt 0.802671 0.617370
vt 0.957442 0.617370
vt 0.957442 0.021526
vt 0.973885 0.021526
vt 0.973885 0.617370
vt 0.537000 0.174060
vt 0.537000 0.021641
vt 0.553442 0.038742
vt 0.553442 0.174060
vt 0.572896 0.021641
vt 0.572896 0.038742
vt 0.597254 0.617370
vt 0.597254 0.021526
vt 0.749673 0.021526
vt 0.749673 0.617370
vt 0.553439 0.038806
vt 0.536997 0.021705
vt 0.536997 0.174124
vt 0.553439 0.174124
vt 0.572893 0.038806
vt 0.572893 0.021705
vt 0.822125 0.617370
vt 0.822125 0.021526
vt 0.561587 0.209280
vt 0.584991 0.209280
vt 0.584991 0.283224
vt 0.561587 0.283224
vt 0.560865 0.059449
vt 0.584269 0.059449
vt 0.584269 0.207804
vt 0.560865 0.207804
vt 0.561587 0.283224
vt 0.584991 0.283224
vt 0.397714 0.234938
vt 0.471658 0.183224
vt 0.471658 0.331579
vt 0.472354 0.183224
vt 0.398410 0.234938
vt 0.472354 0.331579
vt 0.561587 0.209280
vt 0.584992 0.209280
vt 0.584992 0.283224
vt 0.561587 0.283224
vt 0.560865 0.059449
vt 0.584269 0.059449
vt 0.584269 0.207804
vt 0.560865 0.207804
vt 0.561587 0.283224
vt 0.584992 0.283224
vt 0.397714 0.234938
vt 0.471658 0.183224
vt 0.471658 0.331579
vt 0.472354 0.183224
vt 0.398410 0.234938
vt 0.472354 0.331579
vn 0.000000 0.607651 0.794204
vn 0.000000 0.607651 0.794204
vn 0.000000 0.607651 0.794204
vn 0.000000 0.607651 0.794204
vn 0.000000 0.794204 -0.607651
vn 0.000000 0.794204 -0.607651
vn 0.000000 0.794204 -0.607651
vn 0.000000 0.794204 -0.607651
vn -1.000000 -0.000001 0.000000
vn -1.000000 -0.000001 0.000000
vn -1.000000 -0.000001 0.000000
vn -1.000000 -0.000001 0.000000
vn 0.000000 -0.607651 -0.794204
vn 0.000000 -0.607651 -0.794204
vn 0.000000 -0.607651 -0.794204
vn 0.000000 -0.607651 -0.794204
vn 1.000000 -0.000000 0.000000
vn 1.000000 -0.000000 0.000000
vn 1.000000 -0.000000 0.000000
vn 1.000000 -0.000000 0.000000
vn 0.000000 0.607651 0.794204
vn 0.000000 0.607651 0.794204
vn 0.000000 0.607651 0.794204
vn 0.000000 0.607651 0.794204
vn 0.000000 -0.794204 0.607651
vn 0.000000 -0.794204 0.607651
vn 0.000000 -0.794204 0.607651
vn 0.000000 -0.794204 0.607651
vn 1.000000 0.000000 0.000000
vn 1.000000 0.000000 0.000000
vn 0.000000 0.794204 -0.607651
vn 0.000000 0.794204 -0.607651
vn 0.000000 0.794204 -0.607651
vn 0.000000 0.794204 -0.607651
vn -1.000000 0.000000 0.000000
vn -1.000000 0.000000 0.000000
vn 0.000000 0.607671 0.794189
vn 0.000000 0.607671 0.794189
vn 0.000000 0.607671 0.794189
vn 0.000000 0.607671 0.794189
vn 0.000000 0.000000 -1.000000
vn 0.000000 0.000000 -1.000000
vn 0.000000 0.000000 -1.000000
vn 0.000000 0.000000 -1.000000
vn 0.000000 -0.819476 0.573114
vn 0.000000 -0.819476 0.573114
vn 0.000000 -0.819476 0.573114
vn 0.000000 -0.819476 0.573114
vn 1.000000 0.000000 0.000000
vn 1.000000 0.000000 0.000000
vn 1.000000 0.000000 0.000000
vn -1.000000 0.000000 0.000000
vn -1.000000 0.000000 0.000000
vn -1.000000 0.000000 0.000000
vn 0.000000 0.607671 0.794189
vn 0.000000 0.607671 0.794189
vn 0.000000 0.607671 0.794189
vn 0.000000 0.607671 0.794189
vn 0.000000 0.000000 -1.000000
vn 0.000000 0.000000 -1.000000
vn 0.000000 0.000000 -1.000000
vn 0.000000 0.000000 -1.000000
vn 0.000000 -0.819476 0.573114
vn 0.000000 -0.819476 0.573114
vn 0.000000 -0.819476 0.573114
vn 0.000000 -0.819476 0.573114
vn 1.000000 0.000000 0.000000
vn 1.000000 0.000000 0.000000
vn 1.000000 0.000000 0.000000
vn -1.000000 0.000000 0.000000
vn -1.000000 0.000000 0.000000
vn -1.000000 0.000000 0.000000
s off
g polySurface4
usemtl lambert2SG
f 9/1/1 10/2/2 11/3/3 12/4/4
f 3/5/5 4/6/6 6/7/7 5/8/8
s 1
f 5/9/9 1/10/10 7/11/11 3/12/12
s off
f 5/15/13 6/16/14 2/17/15 1/18/16
s 2
f 8/19/17 2/20/18 6/21/19 4/22/20
s off
f 7/25/21 8/26/22 4/6/23 3/5/24
f 1/18/25 2/17/26 10/2/27 9/1/28
s 2
f 2/20/18 8/19/17 11/23/29 10/24/30
s off
f 8/26/31 7/25/32 12/4/33 11/3/34
s 1
f 7/11/11 1/10/10 9/13/35 12/14/36
s off
f 13/27/37 14/28/38 16/29/39 15/30/40
f 15/31/41 16/32/42 18/33/43 17/34/44
f 17/35/45 18/36/46 14/28/47 13/27/48
f 14/37/49 18/38/50 16/39/51
f 17/40/52 13/41/53 15/42/54
f 19/43/55 20/44/56 22/45/57 21/46/58
f 21/47/59 22/48/60 24/49/61 23/50/62
f 23/51/63 24/52/64 20/44/65 19/43/66
f 20/53/67 24/54/68 22/55/69
f 23/56/70 19/57/71 21/58/72
