# This file uses meters as units for non-parametric coordinates.

mtllib TrophyShelfBottom_001.mtl
g default
v 5.236802 75.952095 83.954453
v 35.484806 75.952095 83.954453
v 5.236802 93.869965 83.954453
v 35.484806 93.869965 83.954453
v 5.236802 93.869965 64.484322
v 35.484806 93.869965 64.484322
v 5.236802 75.952095 64.484322
v 35.484806 75.952095 64.484322
v 5.236802 80.431564 64.484322
v 5.236802 80.431564 83.954453
v 5.236801 89.390495 64.484322
v 5.236801 89.390495 83.954453
v 6.951114 87.150764 64.484322
v 6.951114 87.150764 83.954453
v 6.951114 82.671295 64.484322
v 6.951114 82.671295 83.954453
v -3.000000 75.921509 103.000000
v 0.000000 47.636341 50.000000
v 35.356266 47.636345 50.000000
v 0.000000 11.909084 50.000000
v 0.000000 11.909084 100.000000
v 35.356251 11.909088 100.000000
v 35.356266 11.909088 50.000000
v -3.000000 11.909084 47.000000
v -3.000000 11.909084 103.000000
v -3.000000 0.000000 47.000000
v -3.000000 0.000000 103.000000
v 0.000000 70.744675 100.000000
v 35.356251 70.744675 100.000000
v -3.000000 70.744675 103.000000
v 35.330418 75.921509 103.000000
v 35.336754 11.909088 47.000000
v 35.336754 0.000000 47.000000
v 35.336746 0.000000 103.000000
v 35.336746 11.909088 103.000000
v 35.330418 70.744675 103.000000
v -3.000000 75.921509 -0.000000
v -3.000000 70.744675 -0.000000
v -0.000000 70.744675 -0.000000
v -0.000000 47.636341 -0.000000
v 35.356266 47.636345 -0.000000
v 35.356258 70.744675 0.000000
v 35.330421 75.921509 0.000000
v 5.236801 89.390495 -83.954453
v 35.484806 93.869965 -83.954453
v 5.236802 93.869965 -83.954453
v 35.484806 93.869965 -64.484322
v 5.236802 93.869965 -64.484322
v 5.236801 89.390495 -64.484322
v 5.236802 75.952095 -64.484322
v 35.484806 75.952095 -64.484322
v 35.484806 75.952095 -83.954453
v 5.236802 75.952095 -83.954453
v 5.236802 80.431564 -83.954453
v 5.236802 80.431564 -64.484322
v 6.951114 87.150764 -64.484322
v 6.951114 87.150764 -83.954453
v 6.951114 82.671295 -64.484322
v 6.951114 82.671295 -83.954453
v -3.000000 70.744675 -103.000000
v 35.330418 70.744675 -103.000000
v 35.330418 75.921509 -103.000000
v -3.000000 75.921509 -103.000000
v 0.000000 47.636341 -50.000000
v 35.356266 47.636345 -50.000000
v 35.356266 11.909088 -50.000000
v -0.000000 11.909084 -50.000000
v 35.356251 70.744675 -100.000000
v 35.356251 11.909088 -100.000000
v -3.000000 11.909084 -103.000000
v -3.000000 11.909084 -47.000000
v -3.000000 0.000000 -47.000000
v -3.000000 -0.000000 -103.000000
v 35.336746 11.909088 -103.000000
v 35.336746 0.000000 -103.000000
v 35.336754 11.909088 -47.000000
v 35.336754 -0.000000 -47.000000
v -0.000000 11.909084 -100.000000
v -0.000000 70.744675 -100.000000
vt 0.248697 0.241946
vt 0.149043 0.227188
vt 0.248697 0.227188
vt 0.243050 0.249324
vt 0.243049 0.264082
vt 0.149043 0.286219
vt 0.248697 0.271461
vt 0.248697 0.286219
vt 0.368793 0.296101
vt 0.468448 0.296103
vt 0.468446 0.360249
vt 0.368792 0.360247
vt 0.248697 0.286219
vt 0.149043 0.286219
vt 0.248697 0.271461
vt 0.243049 0.264083
vt 0.243049 0.249325
vt 0.149043 0.227188
vt 0.248697 0.241946
vt 0.248697 0.227188
vt 0.305882 0.360247
vt 0.206228 0.360246
vt 0.206228 0.296101
vt 0.305882 0.296101
vt 0.354035 0.360247
vt 0.354035 0.296101
vt 0.147196 0.360247
vt 0.147196 0.296101
vt 0.344474 0.360247
vt 0.344474 0.296101
vt 0.329716 0.360247
vt 0.329716 0.296101
vt 0.320640 0.360247
vt 0.320640 0.296101
vt 0.936607 0.373025
vt 0.810458 0.373025
vt 0.810458 0.355988
vt 0.936607 0.355988
vt 0.810458 0.017005
vt 0.936606 0.017005
vt 0.953644 0.355988
vt 0.953644 0.017005
vt 0.816526 0.506522
vt 0.651972 0.506522
vt 0.651971 0.390161
vt 0.816526 0.390161
vt 0.934108 0.390162
vt 0.934107 0.506522
vt 0.793420 0.346114
vt 0.599787 0.346114
vt 0.599787 0.181560
vt 0.717369 0.181560
vt 0.940776 0.832222
vt 0.940762 0.647920
vt 0.979956 0.647919
vt 0.979970 0.832219
vt 0.940788 0.958392
vt 0.979982 0.958388
vt 0.940762 0.521750
vt 0.979956 0.521750
vt 0.985992 0.154570
vt 0.985992 0.319125
vt 0.976118 0.328998
vt 0.976118 0.144697
vt 0.976102 0.455780
vt 0.976102 0.329611
vt 0.985975 0.339484
vt 0.985975 0.455845
vt 0.931058 0.640642
vt 0.737425 0.640641
vt 0.737425 0.524280
vt 0.931059 0.524281
vt 0.963517 0.017005
vt 0.963517 0.346114
vt 0.542665 0.260196
vt 0.358364 0.260196
vt 0.358364 0.134026
vt 0.542665 0.134026
vt 0.931058 0.969751
vt 0.855007 0.969751
vt 0.855007 0.805196
vt 0.737425 0.805196
vt 0.717369 0.017005
vt 0.793420 0.017005
vt 0.985975 0.133277
vt 0.976102 0.143151
vt 0.976102 0.016981
vt 0.985975 0.016917
vt 0.953691 0.485292
vt 0.953691 0.359143
vt 0.963564 0.369016
vt 0.963565 0.485377
vt 0.560593 0.355988
vt 0.560593 0.171686
vt 0.793420 0.355988
vt 0.599787 0.171686
vt 0.599787 0.355988
vt 0.248697 0.241946
vt 0.149043 0.227188
vt 0.248697 0.227188
vt 0.368793 0.296101
vt 0.468448 0.296103
vt 0.468446 0.360249
vt 0.368792 0.360247
vt 0.248697 0.286219
vt 0.149043 0.286219
vt 0.248697 0.271461
vt 0.305882 0.360247
vt 0.206228 0.360246
vt 0.206228 0.296101
vt 0.305882 0.296101
vt 0.354035 0.360247
vt 0.354035 0.296101
vt 0.320640 0.296101
vt 0.320640 0.360247
vt 0.248697 0.286219
vt 0.149043 0.286219
vt 0.248697 0.271461
vt 0.248697 0.241946
vt 0.149043 0.227188
vt 0.248697 0.227188
vt 0.344474 0.360247
vt 0.344474 0.296101
vt 0.243050 0.249324
vt 0.243049 0.264083
vt 0.329716 0.360247
vt 0.329716 0.296101
vt 0.243049 0.264082
vt 0.147196 0.360247
vt 0.147196 0.296101
vt 0.243049 0.249325
vt 0.936607 0.373025
vt 0.810458 0.373025
vt 0.810458 0.355988
vt 0.936607 0.355988
vt 0.810458 0.017005
vt 0.936606 0.017005
vt 0.953644 0.355988
vt 0.953644 0.017005
vt 0.816526 0.506522
vt 0.651972 0.506522
vt 0.651971 0.390161
vt 0.816526 0.390161
vt 0.934108 0.390162
vt 0.934107 0.506522
vt 0.793420 0.346114
vt 0.599787 0.346114
vt 0.599787 0.181560
vt 0.717369 0.181560
vt 0.940776 0.832222
vt 0.940762 0.647920
vt 0.979956 0.647919
vt 0.979970 0.832219
vt 0.940788 0.958392
vt 0.979982 0.958388
vt 0.940762 0.521750
vt 0.979956 0.521750
vt 0.985992 0.154570
vt 0.985992 0.319125
vt 0.976118 0.328998
vt 0.976118 0.144697
vt 0.976102 0.455780
vt 0.976102 0.329611
vt 0.985975 0.339484
vt 0.985975 0.455845
vt 0.931058 0.640642
vt 0.737425 0.640641
vt 0.737425 0.524280
vt 0.931059 0.524281
vt 0.963517 0.017005
vt 0.963517 0.346114
vt 0.542665 0.260196
vt 0.358364 0.260196
vt 0.358364 0.134026
vt 0.542665 0.134026
vt 0.931058 0.969751
vt 0.855007 0.969751
vt 0.855007 0.805196
vt 0.737425 0.805196
vt 0.717369 0.017005
vt 0.793420 0.017005
vt 0.985975 0.133277
vt 0.976102 0.143151
vt 0.976102 0.016981
vt 0.985975 0.016917
vt 0.953691 0.485292
vt 0.953691 0.359143
vt 0.963564 0.369016
vt 0.963565 0.485377
vt 0.560593 0.355988
vt 0.560593 0.171686
vt 0.793420 0.355988
vt 0.599787 0.171686
vt 0.599787 0.355988
vn 0.000000 0.000000 1.000000
vn 0.000000 0.000000 1.000000
vn 0.000000 0.000000 1.000000
vn 0.000000 1.000000 0.000000
vn 0.000000 1.000000 0.000000
vn 0.000000 1.000000 0.000000
vn 0.000000 1.000000 0.000000
vn 0.000000 0.000000 -1.000000
vn 0.000000 0.000000 -1.000000
vn 0.000000 0.000000 -1.000000
vn 0.000000 -1.000000 0.000000
vn 0.000000 -1.000000 0.000000
vn 0.000000 -1.000000 0.000000
vn 0.000000 -1.000000 0.000000
vn -1.000000 0.000000 0.000000
vn -1.000000 0.000000 0.000000
vn -1.000000 0.000000 0.000000
vn -1.000000 0.000000 0.000000
vn -1.000000 0.000000 0.000000
vn -1.000000 0.000000 0.000000
vn -1.000000 0.000000 0.000000
vn -1.000000 0.000000 0.000000
vn 0.000000 0.000000 1.000000
vn 0.000000 0.000000 1.000000
vn 0.000000 0.000000 1.000000
vn 0.000000 0.000000 -1.000000
vn 0.000000 0.000000 -1.000000
vn 0.000000 0.000000 -1.000000
vn -0.794088 -0.607803 0.000000
vn -0.794088 -0.607803 0.000000
vn -0.794088 -0.607803 0.000000
vn -0.794088 -0.607803 0.000000
vn 0.000000 0.000000 1.000000
vn 0.000000 0.000000 1.000000
vn 0.000000 0.000000 1.000000
vn 0.000000 0.000000 -1.000000
vn 0.000000 0.000000 -1.000000
vn 0.000000 0.000000 -1.000000
vn -1.000000 0.000000 0.000000
vn -1.000000 0.000000 0.000000
vn -1.000000 0.000000 0.000000
vn -1.000000 0.000000 0.000000
vn 0.000000 0.000000 1.000000
vn 0.000000 0.000000 1.000000
vn 0.000000 0.000000 1.000000
vn 0.000000 0.000000 1.000000
vn 1.000000 0.000000 0.000000
vn 1.000000 0.000000 0.000000
vn 1.000000 0.000000 0.000000
vn 1.000000 0.000000 0.000000
vn 0.000000 0.000000 -1.000000
vn 0.000000 0.000000 -1.000000
vn 0.000000 0.000000 -1.000000
vn 0.000000 0.000000 -1.000000
vn -0.794088 0.607803 0.000000
vn -0.794088 0.607803 0.000000
vn -0.794088 0.607803 0.000000
vn -0.794088 0.607803 0.000000
vn 0.000000 0.000000 1.000000
vn 0.000000 0.000000 1.000000
vn 0.000000 0.000000 1.000000
vn 0.000000 0.000000 -1.000000
vn 0.000000 0.000000 -1.000000
vn 0.000000 0.000000 -1.000000
vn 0.000000 0.000000 1.000000
vn 0.000000 0.000000 1.000000
vn 0.000000 0.000000 1.000000
vn 0.000000 0.000000 1.000000
vn 0.000000 1.000000 0.000000
vn 0.000000 1.000000 0.000000
vn 0.000000 1.000000 0.000000
vn 0.000000 1.000000 0.000000
vn -1.000000 0.000000 0.000000
vn -1.000000 0.000000 0.000000
vn -1.000000 0.000000 0.000000
vn -1.000000 0.000000 0.000000
vn 0.000000 -1.000000 0.000000
vn 0.000000 -1.000000 0.000000
vn 0.000000 -1.000000 0.000000
vn 0.000000 -1.000000 0.000000
vn 0.000000 0.000000 -1.000000
vn 0.000000 0.000000 -1.000000
vn 0.000000 0.000000 -1.000000
vn 0.000000 0.000000 -1.000000
vn 1.000000 0.000000 0.000000
vn 1.000000 0.000000 0.000000
vn 1.000000 0.000000 0.000000
vn 1.000000 0.000000 0.000000
vn -1.000000 0.000000 0.000000
vn -1.000000 0.000000 0.000000
vn -1.000000 0.000000 0.000000
vn -1.000000 0.000000 0.000000
vn 0.000000 0.000000 1.000000
vn 0.000000 0.000000 1.000000
vn 0.000000 0.000000 1.000000
vn 0.000000 0.000000 1.000000
vn 0.000000 0.000000 -1.000000
vn 0.000000 0.000000 -1.000000
vn 0.000000 0.000000 -1.000000
vn 0.000000 0.000000 -1.000000
vn 0.000000 1.000000 0.000000
vn 0.000000 1.000000 0.000000
vn 0.000000 1.000000 0.000000
vn 0.000000 1.000000 0.000000
vn -0.000000 1.000000 -0.000000
vn -0.000000 1.000000 -0.000000
vn -0.000000 1.000000 -0.000000
vn -0.000000 1.000000 -0.000000
vn 0.000000 0.000000 1.000000
vn 0.000000 0.000000 1.000000
vn 0.000000 0.000000 1.000000
vn 0.000000 0.000000 1.000000
vn 0.000000 -1.000000 0.000000
vn 0.000000 -1.000000 0.000000
vn 0.000000 -1.000000 0.000000
vn 0.000000 -1.000000 0.000000
vn 0.000000 -1.000000 0.000000
vn 0.000000 -1.000000 0.000000
vn 0.000000 -1.000000 0.000000
vn 0.000000 -1.000000 0.000000
vn -1.000000 0.000000 0.000000
vn -1.000000 0.000000 0.000000
vn -1.000000 0.000000 0.000000
vn -1.000000 0.000000 0.000000
vn -1.000000 0.000000 0.000000
vn -1.000000 0.000000 0.000000
vn -1.000000 0.000000 0.000000
vn -1.000000 0.000000 0.000000
vn 1.000000 0.000000 0.000000
vn 1.000000 0.000000 0.000000
vn 1.000000 0.000000 0.000000
vn 1.000000 0.000000 0.000000
vn -0.000000 1.000000 0.000000
vn -0.000000 1.000000 0.000000
vn -0.000000 1.000000 0.000000
vn -0.000000 1.000000 0.000000
vn 0.000000 -1.000000 -0.000001
vn 0.000000 -1.000000 -0.000001
vn 0.000000 -1.000000 -0.000001
vn 0.000000 -1.000000 -0.000001
vn 0.999999 -0.001638 0.000000
vn 0.999999 -0.001638 0.000000
vn 0.999999 -0.001638 0.000000
vn 0.999999 -0.001638 0.000000
vn 0.999988 0.004990 0.000000
vn 0.999988 0.004990 0.000000
vn 0.999988 0.004990 0.000000
vn 0.999988 0.004990 0.000000
vn 0.999963 0.000000 0.008611
vn 0.999963 0.000000 0.008611
vn 0.999963 0.000000 0.008611
vn 0.999979 0.000000 -0.006504
vn 0.999979 0.000000 -0.006504
vn 0.999979 0.000000 -0.006504
vn 0.999979 0.000000 0.006501
vn 0.999979 0.000000 0.006501
vn 0.999979 0.000000 0.006501
vn 0.000000 0.000000 -1.000000
vn 0.000000 0.000000 -1.000000
vn 0.000000 0.000000 -1.000000
vn 0.000000 1.000000 0.000000
vn 0.000000 1.000000 0.000000
vn 0.000000 1.000000 0.000000
vn 0.000000 1.000000 0.000000
vn 0.000000 0.000000 1.000000
vn 0.000000 0.000000 1.000000
vn 0.000000 0.000000 1.000000
vn 0.000000 -1.000000 0.000000
vn 0.000000 -1.000000 0.000000
vn 0.000000 -1.000000 0.000000
vn 0.000000 -1.000000 0.000000
vn -1.000000 0.000000 0.000000
vn -1.000000 0.000000 0.000000
vn -1.000000 0.000000 0.000000
vn -1.000000 0.000000 0.000000
vn -1.000000 0.000000 0.000000
vn -1.000000 0.000000 0.000000
vn -1.000000 0.000000 0.000000
vn -1.000000 0.000000 0.000000
vn 0.000000 0.000000 -1.000000
vn 0.000000 0.000000 -1.000000
vn 0.000000 0.000000 -1.000000
vn 0.000000 0.000000 1.000000
vn 0.000000 0.000000 1.000000
vn 0.000000 0.000000 1.000000
vn -0.794088 -0.607803 0.000000
vn -0.794088 -0.607803 0.000000
vn -0.794088 -0.607803 0.000000
vn -0.794088 -0.607803 0.000000
vn 0.000000 0.000000 -1.000000
vn 0.000000 0.000000 -1.000000
vn 0.000000 0.000000 -1.000000
vn 0.000000 0.000000 1.000000
vn 0.000000 0.000000 1.000000
vn 0.000000 0.000000 1.000000
vn -1.000000 0.000000 0.000000
vn -1.000000 0.000000 0.000000
vn -1.000000 0.000000 0.000000
vn -1.000000 0.000000 0.000000
vn -0.000000 0.000000 -1.000000
vn -0.000000 0.000000 -1.000000
vn -0.000000 0.000000 -1.000000
vn -0.000000 0.000000 -1.000000
vn 1.000000 0.000000 0.000000
vn 1.000000 0.000000 0.000000
vn 1.000000 0.000000 0.000000
vn 1.000000 0.000000 0.000000
vn -0.000000 0.000000 1.000000
vn -0.000000 0.000000 1.000000
vn -0.000000 0.000000 1.000000
vn -0.000000 0.000000 1.000000
vn -0.794088 0.607803 0.000000
vn -0.794088 0.607803 0.000000
vn -0.794088 0.607803 0.000000
vn -0.794088 0.607803 0.000000
vn 0.000000 0.000000 -1.000000
vn 0.000000 0.000000 -1.000000
vn 0.000000 0.000000 -1.000000
vn 0.000000 0.000000 1.000000
vn 0.000000 0.000000 1.000000
vn 0.000000 0.000000 1.000000
vn 0.000000 0.000000 -1.000000
vn 0.000000 0.000000 -1.000000
vn 0.000000 0.000000 -1.000000
vn 0.000000 0.000000 -1.000000
vn 0.000000 1.000000 -0.000000
vn 0.000000 1.000000 -0.000000
vn 0.000000 1.000000 -0.000000
vn 0.000000 1.000000 -0.000000
vn -1.000000 0.000000 0.000000
vn -1.000000 0.000000 0.000000
vn -1.000000 0.000000 0.000000
vn -1.000000 0.000000 0.000000
vn 0.000000 -1.000000 -0.000000
vn 0.000000 -1.000000 -0.000000
vn 0.000000 -1.000000 -0.000000
vn 0.000000 -1.000000 -0.000000
vn -0.000000 0.000000 1.000000
vn -0.000000 0.000000 1.000000
vn -0.000000 0.000000 1.000000
vn -0.000000 0.000000 1.000000
vn 1.000000 0.000000 -0.000000
vn 1.000000 0.000000 -0.000000
vn 1.000000 0.000000 -0.000000
vn 1.000000 0.000000 -0.000000
vn -1.000000 0.000000 0.000000
vn -1.000000 0.000000 0.000000
vn -1.000000 0.000000 0.000000
vn -1.000000 0.000000 0.000000
vn 0.000000 0.000000 -1.000000
vn 0.000000 0.000000 -1.000000
vn 0.000000 0.000000 -1.000000
vn 0.000000 0.000000 -1.000000
vn 0.000000 0.000000 1.000000
vn 0.000000 0.000000 1.000000
vn 0.000000 0.000000 1.000000
vn 0.000000 0.000000 1.000000
vn 0.000000 1.000000 -0.000000
vn 0.000000 1.000000 -0.000000
vn 0.000000 1.000000 -0.000000
vn 0.000000 1.000000 -0.000000
vn -0.000000 1.000000 0.000000
vn -0.000000 1.000000 0.000000
vn -0.000000 1.000000 0.000000
vn -0.000000 1.000000 0.000000
vn 0.000000 0.000000 -1.000000
vn 0.000000 0.000000 -1.000000
vn 0.000000 0.000000 -1.000000
vn 0.000000 0.000000 -1.000000
vn 0.000000 -1.000000 0.000000
vn 0.000000 -1.000000 0.000000
vn 0.000000 -1.000000 0.000000
vn 0.000000 -1.000000 0.000000
vn 0.000000 -1.000000 -0.000000
vn 0.000000 -1.000000 -0.000000
vn 0.000000 -1.000000 -0.000000
vn 0.000000 -1.000000 -0.000000
vn -1.000000 -0.000000 -0.000000
vn -1.000000 -0.000000 -0.000000
vn -1.000000 -0.000000 -0.000000
vn -1.000000 -0.000000 -0.000000
vn -1.000000 0.000000 -0.000000
vn -1.000000 0.000000 -0.000000
vn -1.000000 0.000000 -0.000000
vn -1.000000 0.000000 -0.000000
vn 1.000000 0.000000 -0.000000
vn 1.000000 0.000000 -0.000000
vn 1.000000 0.000000 -0.000000
vn 1.000000 0.000000 -0.000000
vn -0.000000 1.000000 -0.000000
vn -0.000000 1.000000 -0.000000
vn -0.000000 1.000000 -0.000000
vn -0.000000 1.000000 -0.000000
vn 0.000000 -1.000000 0.000000
vn 0.000000 -1.000000 0.000000
vn 0.000000 -1.000000 0.000000
vn 0.000000 -1.000000 0.000000
vn 0.999999 -0.001638 -0.000000
vn 0.999999 -0.001638 -0.000000
vn 0.999999 -0.001638 -0.000000
vn 0.999999 -0.001638 -0.000000
vn 0.999988 0.004990 -0.000000
vn 0.999988 0.004990 -0.000000
vn 0.999988 0.004990 -0.000000
vn 0.999988 0.004990 -0.000000
vn 0.999963 0.000000 -0.008611
vn 0.999963 0.000000 -0.008611
vn 0.999963 0.000000 -0.008611
vn 0.999979 0.000000 0.006504
vn 0.999979 0.000000 0.006504
vn 0.999979 0.000000 0.006504
vn 0.999979 0.000000 -0.006501
vn 0.999979 0.000000 -0.006501
vn 0.999979 0.000000 -0.006501
s off
g polySurface2
usemtl initialShadingGroup
f 12/1/1 4/2/2 3/3/3
f 3/9/4 4/10/5 6/11/6 5/12/7
f 5/13/8 6/14/9 11/15/10
f 7/21/11 8/22/12 2/23/13 1/24/14
f 11/25/15 12/26/16 3/9/17 5/12/18
f 7/21/19 1/24/20 10/34/21 9/33/22
f 1/8/23 2/6/24 10/7/25
f 9/19/26 8/18/27 7/20/28
f 13/29/29 14/30/30 12/26/31 11/25/32
f 14/4/33 4/2/34 12/1/35
f 11/15/36 6/14/37 13/16/38
f 14/30/39 13/29/40 15/31/41 16/32/42
f 4/2/43 14/4/44 16/5/45 2/6/46
f 8/22/47 6/27/48 4/28/49 2/23/50
f 15/17/51 13/16/52 6/14/53 8/18/54
f 9/33/55 10/34/56 16/32/57 15/31/58
f 10/7/59 2/6/60 16/5/61
f 15/17/62 8/18/63 9/19/64
f 30/35/65 36/36/66 31/37/67 17/38/68
f 17/38/69 31/37/70 43/39/71 37/40/72
f 30/41/73 17/38/74 37/40/75 38/42/76
f 18/43/77 40/44/78 41/45/79 19/46/80
f 23/47/81 20/48/82 18/43/83 19/46/84
f 29/49/85 22/50/86 23/51/87 19/52/88
f 25/53/89 24/54/90 26/55/91 27/56/92
f 35/57/93 25/53/94 27/56/95 34/58/96
f 24/54/97 32/59/98 33/60/99 26/55/100
f 21/61/101 20/62/102 24/63/103 25/64/104
f 32/65/105 24/66/106 20/67/107 23/68/108
f 28/69/109 21/70/110 22/71/111 29/72/112
f 30/41/113 38/42/114 39/73/115 28/74/116
f 27/75/117 26/76/118 33/77/119 34/78/120
f 28/69/121 39/79/122 40/80/123 18/81/124
f 28/69/125 18/81/126 20/82/127 21/70/128
f 29/49/129 19/52/130 41/83/131 42/84/132
f 21/85/133 25/86/134 35/87/135 22/88/136
f 36/89/137 30/90/138 28/91/139 29/92/140
f 23/51/141 22/50/142 34/93/143 33/94/144
f 29/49/145 42/84/146 43/39/147 31/37/148
f 31/37/149 36/95/150 29/49/151
f 33/94/152 32/96/153 23/51/154
f 35/97/155 34/93/156 22/50/157
f 44/98/158 46/100/159 45/99/160
f 46/101/161 48/104/162 47/103/163 45/102/164
f 48/105/165 49/107/166 47/106/167
f 50/108/168 53/111/169 52/110/170 51/109/171
f 49/112/172 48/104/173 46/101/174 44/113/175
f 50/108/176 55/115/177 54/114/178 53/111/179
f 53/116/180 54/118/181 52/117/182
f 55/119/183 50/121/184 51/120/185
f 56/122/186 49/112/187 44/113/188 57/123/189
f 57/124/190 44/98/191 45/99/192
f 49/107/193 56/125/194 47/106/195
f 57/123/196 59/127/197 58/126/198 56/122/199
f 45/99/200 52/117/201 59/128/202 57/124/203
f 51/109/204 52/110/205 45/130/206 47/129/207
f 58/131/208 51/120/209 47/106/210 56/125/211
f 55/115/212 58/126/213 59/127/214 54/114/215
f 54/118/216 59/128/217 52/117/218
f 58/131/219 55/119/220 51/120/221
f 60/132/222 63/135/223 62/134/224 61/133/225
f 63/135/226 37/137/227 43/136/228 62/134/229
f 60/138/230 38/139/231 37/137/232 63/135/233
f 64/140/234 65/143/235 41/142/236 40/141/237
f 66/144/238 65/143/239 64/140/240 67/145/241
f 68/146/242 65/149/243 66/148/244 69/147/245
f 70/150/246 73/153/247 72/152/248 71/151/249
f 74/154/250 75/155/251 73/153/252 70/150/253
f 71/151/254 72/152/255 77/157/256 76/156/257
f 78/158/258 70/161/259 71/160/260 67/159/261
f 76/162/262 66/165/263 67/164/264 71/163/265
f 79/166/266 68/169/267 69/168/268 78/167/269
f 60/138/270 79/171/271 39/170/272 38/139/273
f 73/172/274 75/175/275 77/174/276 72/173/277
f 79/166/278 64/178/279 40/177/280 39/176/281
f 79/166/282 78/167/283 67/179/284 64/178/285
f 68/146/286 42/181/287 41/180/288 65/149/289
f 78/182/290 69/185/291 74/184/292 70/183/293
f 61/186/294 68/189/295 79/188/296 60/187/297
f 66/148/298 77/191/299 75/190/300 69/147/301
f 68/146/302 62/134/303 43/136/304 42/181/305
f 62/134/306 68/146/307 61/192/308
f 77/191/309 66/148/310 76/193/311
f 74/194/312 69/147/313 75/190/314
